PathFileType	4	(x/y/z)	S10_PSF_T15
DataRate	CameraRate	NumFrames	NumMarkers	Units	OrigDataRate	OrigDataStartFrame	OrigNumFrames
240	240	4	51	mm	240	55	439
Frame#	Time	Sternum			R.Acromium			L.Acromium			Top.Head			R.ASIS			L.ASIS			R.PSIS			L.PSIS			R.Great.Tro			L.Great.Tro			R.Iliac.Crest			L.Iliac.Crest			V.Sacral			R.Thigh.Upper.Post			R.Thigh.Lower.Ant			R.Thigh.Lower.Post			R.Thigh.Upper.Ant			R.Knee.Lat			R.Knee.Med			R.Shank.Upper.Post			R.Shank.Lower.Ant			R.Shank.Lower.Post			R.Shank.Upper.Ant			R.Ankle.Lat			R.Ankle.Med			R.Heel.Upper			R.Heel.Med			R.Heel.Lat			R.Toe.Lat			R.Toe.Med			R.Toe.Tip			L.Thigh.Upper.Post			L.Thigh.Lower.Ant			L.Thigh.Lower.Post			L.Thigh.Upper.Ant			L.Knee.Lat			L.Knee.Med			L.Shank.Upper.Post			L.Shank.Lower.Ant			L.Shank.Lower.Post			L.Shank.Upper.Ant			L.Ankle.Lat			L.Ankle.Med			L.Heel.Upper			L.Heel.Med			L.Heel.Lat			L.Toe.Lat			L.Toe.Med			L.Toe.Tip			Cervical.Spine			Back			
		X1	Y1	Z1	X2	Y2	Z2	X3	Y3	Z3	X4	Y4	Z4	X5	Y5	Z5	X6	Y6	Z6	X7	Y7	Z7	X8	Y8	Z8	X9	Y9	Z9	X10	Y10	Z10	X11	Y11	Z11	X12	Y12	Z12	X13	Y13	Z13	X14	Y14	Z14	X15	Y15	Z15	X16	Y16	Z16	X17	Y17	Z17	X18	Y18	Z18	X19	Y19	Z19	X20	Y20	Z20	X21	Y21	Z21	X22	Y22	Z22	X23	Y23	Z23	X24	Y24	Z24	X25	Y25	Z25	X26	Y26	Z26	X27	Y27	Z27	X28	Y28	Z28	X29	Y29	Z29	X30	Y30	Z30	X31	Y31	Z31	X32	Y32	Z32	X33	Y33	Z33	X34	Y34	Z34	X35	Y35	Z35	X36	Y36	Z36	X37	Y37	Z37	X38	Y38	Z38	X39	Y39	Z39	X40	Y40	Z40	X41	Y41	Z41	X42	Y42	Z42	X43	Y43	Z43	X44	Y44	Z44	X45	Y45	Z45	X46	Y46	Z46	X47	Y47	Z47	X48	Y48	Z48	X49	Y49	Z49	X50	Y50	Z50	X51	Y51	Z51	

55	0.225	-1148.6	1260.6	315.2	-1277	1418	463.3	-1276.8	1429	154.93	-1334.5	1730	330.43	-1207.5	981.43	426.07	-1190.2	1020	199.83	NaN	NaN	NaN	NaN	NaN	NaN	-1295.2	894.34	484.22	-1239.5	965.3	132.81	-1313.9	1058.6	467.21	NaN	NaN	NaN	-1423	979.16	281.75	NaN	NaN	NaN	-1205.6	608.18	463.04	-1272.7	597.86	481.47	-1209.5	696.52	469.93	-1280.8	473.97	452.07	-1249.5	465.69	323.05	-1485	390.43	436.54	-1511.2	303.49	430.32	NaN	NaN	NaN	-1435.9	339.91	439.5	-1622.2	268.97	410.59	-1592.7	268.03	326.42	-1669.7	316.89	359.36	-1676.2	304.81	328.83	-1685.9	303.82	387.57	-1695.5	130.25	418.04	NaN	NaN	NaN	NaN	NaN	NaN	-1213.9	677.46	143.88	-1120.4	626.38	179.06	-1194.7	587.5	172.17	-1131.9	708.3	150.78	-1145.7	512.25	195.73	-1151.8	519.87	324.85	-1205.3	298.36	197.58	-1139.4	212.51	221.91	-1204.1	220.32	211.01	-1141.7	288.29	208.87	-1181.8	105.3	225.58	-1168.4	116.39	316.11	-1247.7	75.116	274.73	-1237.6	43.313	306.61	-1242.8	47.41	242.59	-1067.5	43.187	201.91	-1037.9	47.008	309.89	-983.91	59.27	260.15	-1362.1	1480.6	320.12	-1441.7	1270.1	313.49
56	0.22917	-1143.8	1261.4	315.7	-1272.4	1418.8	463.26	-1271	1429.8	154.93	-1329.2	1731	330.2	-1202.9	982.38	426.12	-1185.1	1020.7	199.81	NaN	NaN	NaN	NaN	NaN	NaN	-1290.3	895.31	483.84	-1234.6	965.81	132.67	-1309.3	1059.4	466.9	NaN	NaN	NaN	-1418.2	980.08	281.11	NaN	NaN	NaN	-1196.4	610.45	463.49	-1263.3	599.04	482.11	-1200.2	699.31	469.16	-1269.5	475.07	452.8	-1238.8	467.05	323.47	-1473.6	391.93	437.2	-1499.8	304.94	431.06	NaN	NaN	NaN	-1425.4	341.61	440.46	-1611	270.85	411.17	-1581.1	269.65	326.83	-1657	318.31	359.59	-1664.6	306.7	329.14	-1674.2	306.02	387.83	-1685.2	132.55	419.08	NaN	NaN	NaN	NaN	NaN	NaN	-1210.8	677.88	143.76	-1117.6	625.8	178.66	-1192.3	587.78	171.95	-1128.5	708.36	150.59	-1143.9	512.13	195.59	-1149.5	519.84	324.65	-1204.3	298.61	197.54	-1139	212.33	221.76	-1203.7	220.45	211.06	-1141	288.12	208.71	-1181.7	105.32	225.6	-1168.2	116.48	316.19	-1247.7	75.143	274.72	-1237.6	43.335	306.61	-1242.8	47.434	242.57	-1067.5	43.185	201.89	-1037.9	46.945	309.92	-983.9	59.197	260.15	-1357	1481.5	319.71	-1436.7	1271.1	312.55
57	0.23333	-1138.9	1262.2	316.21	-1267.8	1419.6	463.22	-1265.1	1430.7	154.95	-1323.9	1731.9	330	-1198.2	983.36	426.17	-1180.1	1021.4	199.79	NaN	NaN	NaN	NaN	NaN	NaN	-1285.3	896.32	483.5	-1229.7	966.32	132.53	-1304.8	1060.3	466.59	NaN	NaN	NaN	-1413.3	981.03	280.5	NaN	NaN	NaN	-1187.2	612.77	463.92	-1254	600.32	482.76	-1191	702.12	468.49	-1258.3	476.28	453.51	-1228.2	468.53	323.89	-1462.3	393.42	437.82	-1488.3	306.39	431.78	NaN	NaN	NaN	-1415	343.35	441.39	-1599.7	272.61	411.72	-1569.3	271.15	327.21	-1644.3	319.51	359.77	-1653	308.27	329.39	-1662.5	307.95	388.06	-1674.5	134.59	420.18	NaN	NaN	NaN	NaN	NaN	NaN	-1207.9	678.31	143.65	-1114.9	625.2	178.28	-1189.9	588.06	171.73	-1125.1	708.41	150.38	-1142.1	512.04	195.45	-1147.2	519.85	324.44	-1203.3	298.86	197.48	-1138.6	212.17	221.61	-1203.2	220.59	211.09	-1140.4	287.95	208.54	-1181.5	105.34	225.61	-1168.1	116.56	316.25	-1247.7	75.174	274.71	-1237.6	43.362	306.6	-1242.8	47.463	242.55	-1067.5	43.179	201.87	-1037.9	46.885	309.95	-983.89	59.125	260.16	-1351.9	1482.4	319.32	-1431.7	1272.1	311.6
58	0.2375	-1134.1	1263	316.73	-1263.3	1420.4	463.19	-1259.3	1431.6	154.98	-1318.5	1732.9	329.82	-1193.6	984.39	426.22	-1175.1	1022.1	199.76	NaN	NaN	NaN	NaN	NaN	NaN	-1280.2	897.37	483.19	-1224.8	966.82	132.42	-1300.2	1061.2	466.3	NaN	NaN	NaN	-1408.5	981.99	279.94	NaN	NaN	NaN	-1178.2	615.15	464.32	-1244.7	601.69	483.41	-1182.1	704.95	467.92	-1247.1	477.59	454.21	-1217.7	470.11	324.3	-1450.9	394.89	438.4	-1476.6	307.83	432.46	NaN	NaN	NaN	-1404.6	345.14	442.31	-1588.4	274.25	412.23	-1557.6	272.53	327.55	-1631.7	320.47	359.89	-1641.6	309.52	329.6	-1651	309.61	388.27	-1663.3	136.38	421.34	NaN	NaN	NaN	NaN	NaN	NaN	-1205	678.74	143.54	-1112.3	624.57	177.92	-1187.7	588.35	171.51	-1121.8	708.42	150.17	-1140.4	511.96	195.29	-1144.9	519.89	324.22	-1202.4	299.1	197.39	-1138.2	212.01	221.46	-1202.8	220.73	211.08	-1139.7	287.8	208.36	-1181.4	105.36	225.62	-1167.9	116.66	316.31	-1247.7	75.207	274.69	-1237.6	43.393	306.58	-1242.8	47.497	242.53	-1067.5	43.171	201.85	-1037.9	46.826	309.99	-983.88	59.053	260.15	-1346.7	1483.3	318.93	-1426.7	1273	310.62
